<mxfile host="app.diagrams.net" modified="2024-04-27T16:20:17.587Z" agent="Mozilla/5.0 (Windows NT 10.0; Win64; x64) AppleWebKit/537.36 (KHTML, like Gecko) Chrome/124.0.0.0 Safari/537.36" etag="5XO-cqyrt7pkrRuqL_UQ" version="24.3.1" type="device">
  <diagram id="C5RBs43oDa-KdzZeNtuy" name="Page-1">
    <mxGraphModel dx="1386" dy="678" grid="0" gridSize="10" guides="1" tooltips="1" connect="1" arrows="1" fold="1" page="1" pageScale="1" pageWidth="827" pageHeight="1169" math="0" shadow="0">
      <root>
        <mxCell id="WIyWlLk6GJQsqaUBKTNV-0" />
        <mxCell id="WIyWlLk6GJQsqaUBKTNV-1" parent="WIyWlLk6GJQsqaUBKTNV-0" />
        <mxCell id="tXX2q2rpY85oOy0DqOmW-21" value="" style="edgeStyle=orthogonalEdgeStyle;rounded=0;orthogonalLoop=1;jettySize=auto;html=1;" edge="1" parent="WIyWlLk6GJQsqaUBKTNV-1" source="WIyWlLk6GJQsqaUBKTNV-3" target="tXX2q2rpY85oOy0DqOmW-20">
          <mxGeometry relative="1" as="geometry" />
        </mxCell>
        <mxCell id="WIyWlLk6GJQsqaUBKTNV-3" value="&lt;font style=&quot;font-size: 10px;&quot;&gt;Module Initializations &amp;amp; Load Data&lt;/font&gt;" style="rounded=1;whiteSpace=wrap;html=1;fontSize=12;glass=0;strokeWidth=1;shadow=0;" parent="WIyWlLk6GJQsqaUBKTNV-1" vertex="1">
          <mxGeometry x="70" y="70" width="100" height="40" as="geometry" />
        </mxCell>
        <mxCell id="WIyWlLk6GJQsqaUBKTNV-4" value="No" style="rounded=0;html=1;jettySize=auto;orthogonalLoop=1;fontSize=11;endArrow=block;endFill=0;endSize=8;strokeWidth=1;shadow=0;labelBackgroundColor=none;edgeStyle=orthogonalEdgeStyle;" parent="WIyWlLk6GJQsqaUBKTNV-1" source="WIyWlLk6GJQsqaUBKTNV-6" edge="1">
          <mxGeometry x="-0.3447" y="-10" relative="1" as="geometry">
            <mxPoint as="offset" />
            <mxPoint x="120" y="290" as="targetPoint" />
          </mxGeometry>
        </mxCell>
        <mxCell id="WIyWlLk6GJQsqaUBKTNV-5" value="Yes" style="edgeStyle=orthogonalEdgeStyle;rounded=0;html=1;jettySize=auto;orthogonalLoop=1;fontSize=11;endArrow=block;endFill=0;endSize=8;strokeWidth=1;shadow=0;labelBackgroundColor=none;entryX=0;entryY=0.5;entryDx=0;entryDy=0;" parent="WIyWlLk6GJQsqaUBKTNV-1" target="WIyWlLk6GJQsqaUBKTNV-7" edge="1">
          <mxGeometry x="-0.4998" y="5" relative="1" as="geometry">
            <mxPoint as="offset" />
            <mxPoint x="150" y="234.92" as="sourcePoint" />
            <mxPoint x="180" y="234.92" as="targetPoint" />
            <Array as="points">
              <mxPoint x="171" y="235" />
            </Array>
          </mxGeometry>
        </mxCell>
        <mxCell id="WIyWlLk6GJQsqaUBKTNV-6" value="&lt;font style=&quot;font-size: 10px;&quot;&gt;Train&lt;/font&gt;&lt;div&gt;&lt;font style=&quot;font-size: 10px;&quot;&gt;ANN&lt;/font&gt;&lt;/div&gt;" style="rhombus;whiteSpace=wrap;html=1;shadow=0;fontFamily=Helvetica;fontSize=12;align=center;strokeWidth=1;spacing=6;spacingTop=-4;" parent="WIyWlLk6GJQsqaUBKTNV-1" vertex="1">
          <mxGeometry x="90" y="210" width="60" height="50" as="geometry" />
        </mxCell>
        <mxCell id="tXX2q2rpY85oOy0DqOmW-29" style="edgeStyle=orthogonalEdgeStyle;rounded=0;orthogonalLoop=1;jettySize=auto;html=1;exitX=1;exitY=0.5;exitDx=0;exitDy=0;entryX=0;entryY=0.5;entryDx=0;entryDy=0;" edge="1" parent="WIyWlLk6GJQsqaUBKTNV-1" source="WIyWlLk6GJQsqaUBKTNV-7" target="tXX2q2rpY85oOy0DqOmW-24">
          <mxGeometry relative="1" as="geometry" />
        </mxCell>
        <mxCell id="WIyWlLk6GJQsqaUBKTNV-7" value="&lt;font style=&quot;font-size: 10px;&quot;&gt;Yellow LED on&lt;/font&gt;" style="rounded=1;whiteSpace=wrap;html=1;fontSize=12;glass=0;strokeWidth=1;shadow=0;" parent="WIyWlLk6GJQsqaUBKTNV-1" vertex="1">
          <mxGeometry x="190" y="226.25" width="70" height="17.5" as="geometry" />
        </mxCell>
        <mxCell id="tXX2q2rpY85oOy0DqOmW-23" style="edgeStyle=orthogonalEdgeStyle;rounded=0;orthogonalLoop=1;jettySize=auto;html=1;exitX=0.5;exitY=1;exitDx=0;exitDy=0;" edge="1" parent="WIyWlLk6GJQsqaUBKTNV-1" source="tXX2q2rpY85oOy0DqOmW-1" target="WIyWlLk6GJQsqaUBKTNV-3">
          <mxGeometry relative="1" as="geometry" />
        </mxCell>
        <mxCell id="tXX2q2rpY85oOy0DqOmW-1" value="Start" style="text;html=1;align=center;verticalAlign=middle;whiteSpace=wrap;rounded=0;" vertex="1" parent="WIyWlLk6GJQsqaUBKTNV-1">
          <mxGeometry x="105" y="30" width="30" height="10" as="geometry" />
        </mxCell>
        <mxCell id="tXX2q2rpY85oOy0DqOmW-4" value="&lt;font style=&quot;font-size: 10px;&quot;&gt;Test&lt;/font&gt;&lt;div&gt;&lt;font style=&quot;font-size: 10px;&quot;&gt;ANN&lt;/font&gt;&lt;/div&gt;" style="rhombus;whiteSpace=wrap;html=1;shadow=0;fontFamily=Helvetica;fontSize=12;align=center;strokeWidth=1;spacing=6;spacingTop=-4;" vertex="1" parent="WIyWlLk6GJQsqaUBKTNV-1">
          <mxGeometry x="90" y="290" width="60" height="50" as="geometry" />
        </mxCell>
        <mxCell id="tXX2q2rpY85oOy0DqOmW-9" value="" style="endArrow=none;html=1;rounded=0;" edge="1" parent="WIyWlLk6GJQsqaUBKTNV-1">
          <mxGeometry width="50" height="50" relative="1" as="geometry">
            <mxPoint x="70" y="340" as="sourcePoint" />
            <mxPoint x="70" y="190" as="targetPoint" />
          </mxGeometry>
        </mxCell>
        <mxCell id="tXX2q2rpY85oOy0DqOmW-11" value="" style="endArrow=none;html=1;rounded=0;entryX=0.5;entryY=1;entryDx=0;entryDy=0;" edge="1" parent="WIyWlLk6GJQsqaUBKTNV-1" target="tXX2q2rpY85oOy0DqOmW-4">
          <mxGeometry width="50" height="50" relative="1" as="geometry">
            <mxPoint x="70" y="340" as="sourcePoint" />
            <mxPoint x="80" y="200" as="targetPoint" />
          </mxGeometry>
        </mxCell>
        <mxCell id="tXX2q2rpY85oOy0DqOmW-13" value="No" style="edgeLabel;html=1;align=center;verticalAlign=middle;resizable=0;points=[];" vertex="1" connectable="0" parent="tXX2q2rpY85oOy0DqOmW-11">
          <mxGeometry x="-0.0096" relative="1" as="geometry">
            <mxPoint x="-5" y="-10" as="offset" />
          </mxGeometry>
        </mxCell>
        <mxCell id="tXX2q2rpY85oOy0DqOmW-12" value="" style="rounded=0;html=1;jettySize=auto;orthogonalLoop=1;fontSize=11;endArrow=block;endFill=0;endSize=8;strokeWidth=1;shadow=0;labelBackgroundColor=none;edgeStyle=orthogonalEdgeStyle;" edge="1" parent="WIyWlLk6GJQsqaUBKTNV-1">
          <mxGeometry relative="1" as="geometry">
            <mxPoint x="70" y="190" as="sourcePoint" />
            <mxPoint x="120" y="190" as="targetPoint" />
          </mxGeometry>
        </mxCell>
        <mxCell id="tXX2q2rpY85oOy0DqOmW-28" style="edgeStyle=orthogonalEdgeStyle;rounded=0;orthogonalLoop=1;jettySize=auto;html=1;exitX=1;exitY=0.5;exitDx=0;exitDy=0;entryX=0;entryY=0.5;entryDx=0;entryDy=0;" edge="1" parent="WIyWlLk6GJQsqaUBKTNV-1" source="tXX2q2rpY85oOy0DqOmW-16" target="tXX2q2rpY85oOy0DqOmW-27">
          <mxGeometry relative="1" as="geometry" />
        </mxCell>
        <mxCell id="tXX2q2rpY85oOy0DqOmW-16" value="&lt;font style=&quot;font-size: 10px;&quot;&gt;Yellow LED on&lt;/font&gt;" style="rounded=1;whiteSpace=wrap;html=1;fontSize=12;glass=0;strokeWidth=1;shadow=0;" vertex="1" parent="WIyWlLk6GJQsqaUBKTNV-1">
          <mxGeometry x="190" y="306.25" width="70" height="17.5" as="geometry" />
        </mxCell>
        <mxCell id="tXX2q2rpY85oOy0DqOmW-18" value="Yes" style="edgeStyle=orthogonalEdgeStyle;rounded=0;html=1;jettySize=auto;orthogonalLoop=1;fontSize=11;endArrow=block;endFill=0;endSize=8;strokeWidth=1;shadow=0;labelBackgroundColor=none;entryX=0;entryY=0.5;entryDx=0;entryDy=0;" edge="1" parent="WIyWlLk6GJQsqaUBKTNV-1">
          <mxGeometry x="-0.4998" y="5" relative="1" as="geometry">
            <mxPoint as="offset" />
            <mxPoint x="150" y="314.95" as="sourcePoint" />
            <mxPoint x="190" y="315.03" as="targetPoint" />
            <Array as="points">
              <mxPoint x="171" y="315.03" />
            </Array>
          </mxGeometry>
        </mxCell>
        <mxCell id="tXX2q2rpY85oOy0DqOmW-22" value="" style="edgeStyle=orthogonalEdgeStyle;rounded=0;orthogonalLoop=1;jettySize=auto;html=1;" edge="1" parent="WIyWlLk6GJQsqaUBKTNV-1" source="tXX2q2rpY85oOy0DqOmW-20" target="WIyWlLk6GJQsqaUBKTNV-6">
          <mxGeometry relative="1" as="geometry" />
        </mxCell>
        <mxCell id="tXX2q2rpY85oOy0DqOmW-20" value="&lt;font style=&quot;font-size: 10px;&quot;&gt;LCD Display:&lt;/font&gt;&lt;div&gt;&lt;font style=&quot;font-size: 10px;&quot;&gt;&quot;Loaded Data in # us&quot;&lt;/font&gt;&lt;/div&gt;" style="rounded=1;whiteSpace=wrap;html=1;fontSize=12;glass=0;strokeWidth=1;shadow=0;" vertex="1" parent="WIyWlLk6GJQsqaUBKTNV-1">
          <mxGeometry x="70" y="130" width="100" height="40" as="geometry" />
        </mxCell>
        <mxCell id="tXX2q2rpY85oOy0DqOmW-31" style="edgeStyle=orthogonalEdgeStyle;rounded=0;orthogonalLoop=1;jettySize=auto;html=1;exitX=1;exitY=0.5;exitDx=0;exitDy=0;entryX=0;entryY=0.5;entryDx=0;entryDy=0;" edge="1" parent="WIyWlLk6GJQsqaUBKTNV-1" source="tXX2q2rpY85oOy0DqOmW-24" target="tXX2q2rpY85oOy0DqOmW-30">
          <mxGeometry relative="1" as="geometry" />
        </mxCell>
        <mxCell id="tXX2q2rpY85oOy0DqOmW-24" value="&lt;font style=&quot;font-size: 8px;&quot;&gt;LCD Display:&lt;/font&gt;&lt;div&gt;&lt;font style=&quot;font-size: 8px;&quot;&gt;&quot;ANN Training&quot;&lt;/font&gt;&lt;/div&gt;" style="rounded=1;whiteSpace=wrap;html=1;fontSize=12;glass=0;strokeWidth=1;shadow=0;" vertex="1" parent="WIyWlLk6GJQsqaUBKTNV-1">
          <mxGeometry x="280" y="220" width="60" height="30" as="geometry" />
        </mxCell>
        <mxCell id="tXX2q2rpY85oOy0DqOmW-42" value="" style="edgeStyle=orthogonalEdgeStyle;rounded=0;orthogonalLoop=1;jettySize=auto;html=1;" edge="1" parent="WIyWlLk6GJQsqaUBKTNV-1" source="tXX2q2rpY85oOy0DqOmW-26" target="tXX2q2rpY85oOy0DqOmW-33">
          <mxGeometry relative="1" as="geometry" />
        </mxCell>
        <mxCell id="tXX2q2rpY85oOy0DqOmW-26" value="&lt;font style=&quot;font-size: 10px;&quot;&gt;Test ANN&lt;/font&gt;" style="rounded=1;whiteSpace=wrap;html=1;fontSize=12;glass=0;strokeWidth=1;shadow=0;" vertex="1" parent="WIyWlLk6GJQsqaUBKTNV-1">
          <mxGeometry x="360" y="308.13" width="50" height="13.75" as="geometry" />
        </mxCell>
        <mxCell id="tXX2q2rpY85oOy0DqOmW-32" style="edgeStyle=orthogonalEdgeStyle;rounded=0;orthogonalLoop=1;jettySize=auto;html=1;exitX=1;exitY=0.5;exitDx=0;exitDy=0;entryX=0;entryY=0.5;entryDx=0;entryDy=0;" edge="1" parent="WIyWlLk6GJQsqaUBKTNV-1" source="tXX2q2rpY85oOy0DqOmW-27" target="tXX2q2rpY85oOy0DqOmW-26">
          <mxGeometry relative="1" as="geometry" />
        </mxCell>
        <mxCell id="tXX2q2rpY85oOy0DqOmW-27" value="&lt;font style=&quot;font-size: 8px;&quot;&gt;LCD Display:&lt;/font&gt;&lt;div&gt;&lt;font style=&quot;font-size: 8px;&quot;&gt;&quot;ANN Testing&quot;&lt;/font&gt;&lt;/div&gt;" style="rounded=1;whiteSpace=wrap;html=1;fontSize=12;glass=0;strokeWidth=1;shadow=0;" vertex="1" parent="WIyWlLk6GJQsqaUBKTNV-1">
          <mxGeometry x="280" y="300" width="60" height="30" as="geometry" />
        </mxCell>
        <mxCell id="tXX2q2rpY85oOy0DqOmW-36" value="" style="edgeStyle=orthogonalEdgeStyle;rounded=0;orthogonalLoop=1;jettySize=auto;html=1;" edge="1" parent="WIyWlLk6GJQsqaUBKTNV-1" source="tXX2q2rpY85oOy0DqOmW-30">
          <mxGeometry relative="1" as="geometry">
            <mxPoint x="430.01200000000017" y="235" as="targetPoint" />
          </mxGeometry>
        </mxCell>
        <mxCell id="tXX2q2rpY85oOy0DqOmW-30" value="&lt;font style=&quot;font-size: 10px;&quot;&gt;Train ANN&lt;/font&gt;" style="rounded=1;whiteSpace=wrap;html=1;fontSize=12;glass=0;strokeWidth=1;shadow=0;" vertex="1" parent="WIyWlLk6GJQsqaUBKTNV-1">
          <mxGeometry x="360" y="228.13" width="50" height="13.75" as="geometry" />
        </mxCell>
        <mxCell id="tXX2q2rpY85oOy0DqOmW-33" value="&lt;font style=&quot;font-size: 9px;&quot;&gt;Test &lt;/font&gt;&lt;font style=&quot;font-size: 9px;&quot;&gt;Correct?&lt;/font&gt;" style="rhombus;whiteSpace=wrap;html=1;shadow=0;fontFamily=Helvetica;fontSize=12;align=center;strokeWidth=1;spacing=6;spacingTop=-4;" vertex="1" parent="WIyWlLk6GJQsqaUBKTNV-1">
          <mxGeometry x="355" y="345" width="60" height="50" as="geometry" />
        </mxCell>
        <mxCell id="tXX2q2rpY85oOy0DqOmW-41" value="" style="endArrow=none;html=1;rounded=0;" edge="1" parent="WIyWlLk6GJQsqaUBKTNV-1">
          <mxGeometry width="50" height="50" relative="1" as="geometry">
            <mxPoint x="60" y="370" as="sourcePoint" />
            <mxPoint x="60" y="180" as="targetPoint" />
          </mxGeometry>
        </mxCell>
        <mxCell id="tXX2q2rpY85oOy0DqOmW-49" value="" style="rounded=0;html=1;jettySize=auto;orthogonalLoop=1;fontSize=11;endArrow=block;endFill=0;endSize=8;strokeWidth=1;shadow=0;labelBackgroundColor=none;edgeStyle=orthogonalEdgeStyle;exitX=0;exitY=0.5;exitDx=0;exitDy=0;" edge="1" parent="WIyWlLk6GJQsqaUBKTNV-1" source="tXX2q2rpY85oOy0DqOmW-33">
          <mxGeometry relative="1" as="geometry">
            <mxPoint x="350" y="369.95" as="sourcePoint" />
            <mxPoint x="320" y="369.95" as="targetPoint" />
          </mxGeometry>
        </mxCell>
        <mxCell id="tXX2q2rpY85oOy0DqOmW-53" value="No" style="edgeLabel;html=1;align=center;verticalAlign=middle;resizable=0;points=[];" vertex="1" connectable="0" parent="tXX2q2rpY85oOy0DqOmW-49">
          <mxGeometry x="-0.4096" y="1" relative="1" as="geometry">
            <mxPoint y="-10" as="offset" />
          </mxGeometry>
        </mxCell>
        <mxCell id="tXX2q2rpY85oOy0DqOmW-52" value="" style="edgeStyle=orthogonalEdgeStyle;rounded=0;orthogonalLoop=1;jettySize=auto;html=1;" edge="1" parent="WIyWlLk6GJQsqaUBKTNV-1" source="tXX2q2rpY85oOy0DqOmW-50" target="tXX2q2rpY85oOy0DqOmW-51">
          <mxGeometry relative="1" as="geometry" />
        </mxCell>
        <mxCell id="tXX2q2rpY85oOy0DqOmW-50" value="&lt;font style=&quot;font-size: 10px;&quot;&gt;RED LED on&lt;/font&gt;" style="rounded=1;whiteSpace=wrap;html=1;fontSize=12;glass=0;strokeWidth=1;shadow=0;" vertex="1" parent="WIyWlLk6GJQsqaUBKTNV-1">
          <mxGeometry x="260" y="361.25" width="60" height="17.5" as="geometry" />
        </mxCell>
        <mxCell id="tXX2q2rpY85oOy0DqOmW-55" value="" style="edgeStyle=orthogonalEdgeStyle;rounded=0;orthogonalLoop=1;jettySize=auto;html=1;" edge="1" parent="WIyWlLk6GJQsqaUBKTNV-1" source="tXX2q2rpY85oOy0DqOmW-51" target="tXX2q2rpY85oOy0DqOmW-54">
          <mxGeometry relative="1" as="geometry" />
        </mxCell>
        <mxCell id="tXX2q2rpY85oOy0DqOmW-51" value="&lt;font style=&quot;font-size: 8px;&quot;&gt;Output Square Wave&lt;/font&gt;" style="rounded=1;whiteSpace=wrap;html=1;fontSize=12;glass=0;strokeWidth=1;shadow=0;" vertex="1" parent="WIyWlLk6GJQsqaUBKTNV-1">
          <mxGeometry x="160" y="361.25" width="80" height="17.5" as="geometry" />
        </mxCell>
        <mxCell id="tXX2q2rpY85oOy0DqOmW-54" value="&lt;font style=&quot;font-size: 10px;&quot;&gt;RED LED off&lt;/font&gt;" style="rounded=1;whiteSpace=wrap;html=1;fontSize=12;glass=0;strokeWidth=1;shadow=0;" vertex="1" parent="WIyWlLk6GJQsqaUBKTNV-1">
          <mxGeometry x="80" y="361.25" width="60" height="17.5" as="geometry" />
        </mxCell>
        <mxCell id="tXX2q2rpY85oOy0DqOmW-57" value="" style="endArrow=none;html=1;rounded=0;" edge="1" parent="WIyWlLk6GJQsqaUBKTNV-1">
          <mxGeometry width="50" height="50" relative="1" as="geometry">
            <mxPoint x="60" y="370" as="sourcePoint" />
            <mxPoint x="80" y="370" as="targetPoint" />
          </mxGeometry>
        </mxCell>
        <mxCell id="tXX2q2rpY85oOy0DqOmW-60" style="edgeStyle=orthogonalEdgeStyle;rounded=0;orthogonalLoop=1;jettySize=auto;html=1;entryX=0;entryY=0.5;entryDx=0;entryDy=0;" edge="1" parent="WIyWlLk6GJQsqaUBKTNV-1">
          <mxGeometry relative="1" as="geometry">
            <mxPoint x="60" y="180" as="sourcePoint" />
            <mxPoint x="120" y="180" as="targetPoint" />
          </mxGeometry>
        </mxCell>
        <mxCell id="tXX2q2rpY85oOy0DqOmW-74" value="" style="edgeStyle=orthogonalEdgeStyle;rounded=0;orthogonalLoop=1;jettySize=auto;html=1;" edge="1" parent="WIyWlLk6GJQsqaUBKTNV-1" source="tXX2q2rpY85oOy0DqOmW-66" target="tXX2q2rpY85oOy0DqOmW-70">
          <mxGeometry relative="1" as="geometry" />
        </mxCell>
        <mxCell id="tXX2q2rpY85oOy0DqOmW-66" value="&lt;font style=&quot;font-size: 8px;&quot;&gt;Output Sine Wave&lt;/font&gt;" style="rounded=1;whiteSpace=wrap;html=1;fontSize=12;glass=0;strokeWidth=1;shadow=0;" vertex="1" parent="WIyWlLk6GJQsqaUBKTNV-1">
          <mxGeometry x="530" y="360.63" width="80" height="18.75" as="geometry" />
        </mxCell>
        <mxCell id="tXX2q2rpY85oOy0DqOmW-69" value="" style="edgeStyle=orthogonalEdgeStyle;rounded=0;orthogonalLoop=1;jettySize=auto;html=1;" edge="1" parent="WIyWlLk6GJQsqaUBKTNV-1" source="tXX2q2rpY85oOy0DqOmW-67" target="tXX2q2rpY85oOy0DqOmW-66">
          <mxGeometry relative="1" as="geometry" />
        </mxCell>
        <mxCell id="tXX2q2rpY85oOy0DqOmW-67" value="&lt;font style=&quot;font-size: 10px;&quot;&gt;Green LED on&lt;/font&gt;" style="rounded=1;whiteSpace=wrap;html=1;fontSize=12;glass=0;strokeWidth=1;shadow=0;" vertex="1" parent="WIyWlLk6GJQsqaUBKTNV-1">
          <mxGeometry x="440" y="360.63" width="70" height="18.75" as="geometry" />
        </mxCell>
        <mxCell id="tXX2q2rpY85oOy0DqOmW-81" style="edgeStyle=orthogonalEdgeStyle;rounded=0;orthogonalLoop=1;jettySize=auto;html=1;exitX=1.001;exitY=0.554;exitDx=0;exitDy=0;exitPerimeter=0;" edge="1" parent="WIyWlLk6GJQsqaUBKTNV-1" source="tXX2q2rpY85oOy0DqOmW-70">
          <mxGeometry relative="1" as="geometry">
            <mxPoint x="720" y="236" as="targetPoint" />
            <mxPoint x="700" y="365.3961352657005" as="sourcePoint" />
          </mxGeometry>
        </mxCell>
        <mxCell id="tXX2q2rpY85oOy0DqOmW-70" value="&lt;font style=&quot;font-size: 10px;&quot;&gt;Green LED off&lt;/font&gt;" style="rounded=1;whiteSpace=wrap;html=1;fontSize=12;glass=0;strokeWidth=1;shadow=0;" vertex="1" parent="WIyWlLk6GJQsqaUBKTNV-1">
          <mxGeometry x="630" y="360" width="70" height="18.75" as="geometry" />
        </mxCell>
        <mxCell id="tXX2q2rpY85oOy0DqOmW-78" value="" style="edgeStyle=orthogonalEdgeStyle;rounded=0;orthogonalLoop=1;jettySize=auto;html=1;" edge="1" parent="WIyWlLk6GJQsqaUBKTNV-1" source="tXX2q2rpY85oOy0DqOmW-76" target="tXX2q2rpY85oOy0DqOmW-77">
          <mxGeometry relative="1" as="geometry" />
        </mxCell>
        <mxCell id="tXX2q2rpY85oOy0DqOmW-76" value="&lt;font style=&quot;font-size: 8px;&quot;&gt;Output Sine Wave&lt;/font&gt;" style="rounded=1;whiteSpace=wrap;html=1;fontSize=12;glass=0;strokeWidth=1;shadow=0;" vertex="1" parent="WIyWlLk6GJQsqaUBKTNV-1">
          <mxGeometry x="430" y="225.63" width="80" height="18.75" as="geometry" />
        </mxCell>
        <mxCell id="tXX2q2rpY85oOy0DqOmW-84" style="edgeStyle=orthogonalEdgeStyle;rounded=0;orthogonalLoop=1;jettySize=auto;html=1;exitX=1;exitY=0.5;exitDx=0;exitDy=0;" edge="1" parent="WIyWlLk6GJQsqaUBKTNV-1">
          <mxGeometry relative="1" as="geometry">
            <mxPoint x="120" y="186" as="targetPoint" />
            <mxPoint x="600" y="232.63" as="sourcePoint" />
            <Array as="points">
              <mxPoint x="600" y="236" />
              <mxPoint x="721" y="236" />
              <mxPoint x="721" y="186" />
            </Array>
          </mxGeometry>
        </mxCell>
        <mxCell id="tXX2q2rpY85oOy0DqOmW-77" value="&lt;font style=&quot;font-size: 10px;&quot;&gt;Yellow LED off&lt;/font&gt;" style="rounded=1;whiteSpace=wrap;html=1;fontSize=12;glass=0;strokeWidth=1;shadow=0;" vertex="1" parent="WIyWlLk6GJQsqaUBKTNV-1">
          <mxGeometry x="530" y="226.88" width="70" height="17.5" as="geometry" />
        </mxCell>
        <mxCell id="tXX2q2rpY85oOy0DqOmW-89" value="Yes" style="edgeStyle=orthogonalEdgeStyle;rounded=0;html=1;jettySize=auto;orthogonalLoop=1;fontSize=11;endArrow=block;endFill=0;endSize=8;strokeWidth=1;shadow=0;labelBackgroundColor=none;" edge="1" parent="WIyWlLk6GJQsqaUBKTNV-1">
          <mxGeometry x="-0.6181" y="9" relative="1" as="geometry">
            <mxPoint as="offset" />
            <mxPoint x="414" y="369.86" as="sourcePoint" />
            <mxPoint x="440" y="370" as="targetPoint" />
            <Array as="points">
              <mxPoint x="427" y="370" />
            </Array>
          </mxGeometry>
        </mxCell>
      </root>
    </mxGraphModel>
  </diagram>
</mxfile>
